<?xml version="1.0" standalone="no"?>
<!DOCTYPE svg PUBLIC "-//W3C//DTD SVG 20010904//EN"
 "http://www.w3.org/TR/2001/REC-SVG-20010904/DTD/svg10.dtd">
<svg version="1.0" xmlns="http://www.w3.org/2000/svg"
 width="800.000000pt" height="800.000000pt" viewBox="0 0 800.000000 800.000000"
 preserveAspectRatio="xMidYMid meet">
<metadata>
Created by potrace 1.11, written by Peter Selinger 2001-2013
</metadata>
<g transform="translate(0.000000,800.000000) scale(0.100000,-0.100000)"
fill="#000000" stroke="none">
<path d="M3260 6365 l0 -295 -1150 0 -1150 0 0 -825 0 -825 40 0 40 0 0 800 0
800 1145 0 1145 0 0 299 0 300 -29 20 c-16 12 -32 21 -35 21 -3 0 -6 -133 -6
-295z"/>
<path d="M7730 6418 c0 -17 -190 -560 -200 -571 -4 -5 -50 14 -102 42 -207
111 -448 200 -661 243 -95 19 -144 23 -317 23 -214 0 -253 -5 -408 -51 -587
-175 -985 -776 -1098 -1659 -26 -196 -26 -707 -1 -915 44 -363 119 -635 247
-890 245 -493 634 -758 1173 -800 67 -5 136 -6 154 -2 l32 7 -70 100 c-38 55
-87 125 -108 155 -69 99 -156 250 -316 550 -243 454 -334 592 -445 669 -30 21
-64 49 -75 61 -29 32 -201 116 -287 140 -42 12 -103 20 -145 20 -69 0 -73 1
-73 23 0 12 -5 67 -11 122 -13 130 -12 497 1 633 46 477 177 878 388 1192 204
305 487 501 832 576 107 24 445 27 555 5 247 -47 449 -119 687 -244 75 -40
120 -58 126 -52 5 6 53 137 107 293 70 203 94 286 87 295 -6 6 -24 20 -41 30
-23 13 -31 15 -31 5z"/>
<path d="M2970 4110 l0 -300 -1005 0 -1005 0 0 -945 0 -945 45 0 45 0 -7 920
-6 920 1006 0 1007 0 0 303 0 302 -35 23 c-19 12 -37 22 -40 22 -3 0 -5 -135
-5 -300z"/>
<path d="M4431 2474 c-58 -224 -60 -526 -5 -737 47 -177 70 -224 236 -490 54
-87 170 -299 257 -471 185 -365 245 -461 356 -573 105 -104 158 -131 279 -144
50 -5 115 -14 145 -19 117 -21 245 -7 411 45 115 37 197 79 347 181 270 182
491 371 566 485 70 104 84 241 38 371 l-19 56 76 17 c137 29 295 76 412 122
161 64 330 152 330 171 0 14 -154 493 -181 562 -9 24 -67 66 -76 56 -4 -4 146
-487 174 -562 5 -13 -198 -115 -335 -168 -175 -68 -425 -128 -662 -158 -158
-20 -607 -17 -739 5 -470 77 -845 266 -1146 578 -170 176 -295 363 -406 606
l-48 106 -10 -39z"/>
<path d="M1526 1939 c-32 -5 -61 -11 -64 -14 -3 -3 66 -5 154 -5 151 1 157 2
119 15 -44 16 -117 17 -209 4z"/>
<path d="M3450 1615 l0 -305 -1602 0 -1603 0 45 -30 45 -30 1600 3 1600 2 3
302 2 302 -45 31 -45 31 0 -306z"/>
</g>
</svg>
